<svg xmlns="http://www.w3.org/2000/svg" viewBox="0 0 24 24" width="192" height="192" shape-rendering="crispEdges"><rect width="24" height="24" fill="transparent"/><rect x="11" y="6" width="4" height="1" fill="#ddb553"/><rect x="10" y="7" width="6" height="4" fill="#ddb553"/><rect x="11" y="11" width="4" height="1" fill="#ddb553"/><rect x="10" y="7" width="6" height="1" fill="#34241d"/><rect x="10" y="10" width="6" height="1" fill="#34241d"/><rect x="10" y="7" width="1" height="4" fill="#34241d"/><rect x="15" y="7" width="1" height="4" fill="#34241d"/><rect x="8" y="10" width="4" height="1" fill="#efc76b"/><rect x="7" y="11" width="6" height="4" fill="#efc76b"/><rect x="8" y="15" width="4" height="1" fill="#efc76b"/><rect x="7" y="11" width="6" height="1" fill="#34241d"/><rect x="7" y="14" width="6" height="1" fill="#34241d"/><rect x="7" y="11" width="1" height="4" fill="#34241d"/><rect x="12" y="11" width="1" height="4" fill="#34241d"/><rect x="14" y="11" width="4" height="1" fill="#c99834"/><rect x="13" y="12" width="6" height="4" fill="#c99834"/><rect x="14" y="16" width="4" height="1" fill="#c99834"/><rect x="13" y="12" width="6" height="1" fill="#34241d"/><rect x="13" y="15" width="6" height="1" fill="#34241d"/><rect x="13" y="12" width="1" height="4" fill="#34241d"/><rect x="18" y="12" width="1" height="4" fill="#34241d"/></svg>