<svg xmlns="http://www.w3.org/2000/svg" viewBox="0 0 24 24" width="192" height="192" shape-rendering="crispEdges"><rect width="24" height="24" fill="transparent"/><rect x="5" y="12" width="14" height="6" fill="#8f6039"/><rect x="7" y="9" width="14" height="6" fill="#8c8782"/><rect x="3" y="15" width="14" height="6" fill="#b97b53"/><rect x="5" y="12" width="14" height="1" fill="#34241d"/><rect x="5" y="17" width="14" height="1" fill="#34241d"/><rect x="5" y="12" width="1" height="6" fill="#34241d"/><rect x="18" y="12" width="1" height="6" fill="#34241d"/><rect x="7" y="9" width="14" height="1" fill="#34241d"/><rect x="7" y="14" width="14" height="1" fill="#34241d"/><rect x="7" y="9" width="1" height="6" fill="#34241d"/><rect x="20" y="9" width="1" height="6" fill="#34241d"/><rect x="3" y="15" width="14" height="1" fill="#34241d"/><rect x="3" y="20" width="14" height="1" fill="#34241d"/><rect x="3" y="15" width="1" height="6" fill="#34241d"/><rect x="16" y="15" width="1" height="6" fill="#34241d"/></svg>