<svg xmlns="http://www.w3.org/2000/svg" viewBox="0 0 24 24" width="192" height="192" shape-rendering="crispEdges"><rect width="24" height="24" fill="transparent"/><rect x="4" y="4" width="7" height="7" fill="#f3e3c7"/><rect x="13" y="4" width="7" height="7" fill="#88b55d"/><rect x="4" y="13" width="7" height="7" fill="#b97b53"/><rect x="13" y="13" width="7" height="7" fill="#5ea8c8"/><rect x="4" y="4" width="7" height="1" fill="#34241d"/><rect x="4" y="10" width="7" height="1" fill="#34241d"/><rect x="4" y="4" width="1" height="7" fill="#34241d"/><rect x="10" y="4" width="1" height="7" fill="#34241d"/><rect x="13" y="4" width="7" height="1" fill="#34241d"/><rect x="13" y="10" width="7" height="1" fill="#34241d"/><rect x="13" y="4" width="1" height="7" fill="#34241d"/><rect x="19" y="4" width="1" height="7" fill="#34241d"/><rect x="4" y="13" width="7" height="1" fill="#34241d"/><rect x="4" y="19" width="7" height="1" fill="#34241d"/><rect x="4" y="13" width="1" height="7" fill="#34241d"/><rect x="10" y="13" width="1" height="7" fill="#34241d"/><rect x="13" y="13" width="7" height="1" fill="#34241d"/><rect x="13" y="19" width="7" height="1" fill="#34241d"/><rect x="13" y="13" width="1" height="7" fill="#34241d"/><rect x="19" y="13" width="1" height="7" fill="#34241d"/></svg>