<svg xmlns="http://www.w3.org/2000/svg" viewBox="0 0 48 48" width="288" height="288" shape-rendering="crispEdges"><rect width="48" height="48" fill="transparent"/><rect x="2" y="35" width="44" height="3" fill="#5ca3d8"/><rect x="0" y="38" width="48" height="1" fill="#34241d"/><rect x="9" y="12" width="22" height="1" fill="#4f8f92"/><rect x="10" y="13" width="20" height="1" fill="#4f8f92"/><rect x="11" y="14" width="18" height="1" fill="#4f8f92"/><rect x="12" y="15" width="16" height="1" fill="#4f8f92"/><rect x="13" y="16" width="14" height="1" fill="#4f8f92"/><rect x="13" y="16" width="14" height="1" fill="#34241d"/><rect x="13" y="16" width="14" height="1" fill="#34241d"/><rect x="13" y="16" width="1" height="1" fill="#34241d"/><rect x="26" y="16" width="1" height="1" fill="#34241d"/><rect x="11" y="17" width="18" height="11" fill="#8f6039"/><rect x="14" y="20" width="4" height="4" fill="#a8ddf5"/><rect x="21" y="20" width="4" height="4" fill="#a8ddf5"/><rect x="18" y="23" width="4" height="5" fill="#64422a"/><rect x="14" y="28" width="2" height="7" fill="#64422a"/><rect x="24" y="28" width="2" height="7" fill="#64422a"/><rect x="8" y="29" width="24" height="2" fill="#dfceb5"/><rect x="31" y="24" width="4" height="2" fill="#ddb553"/></svg>