<svg xmlns="http://www.w3.org/2000/svg" viewBox="0 0 48 48" width="288" height="288" shape-rendering="crispEdges"><rect width="48" height="48" fill="transparent"/><rect x="2" y="36" width="44" height="3" fill="#5ca3d8"/><rect x="0" y="39" width="48" height="1" fill="#34241d"/><rect x="13" y="8" width="18" height="1" fill="#4f8f92"/><rect x="14" y="9" width="16" height="1" fill="#4f8f92"/><rect x="15" y="10" width="14" height="1" fill="#4f8f92"/><rect x="16" y="11" width="12" height="1" fill="#4f8f92"/><rect x="17" y="12" width="10" height="1" fill="#4f8f92"/><rect x="18" y="13" width="8" height="1" fill="#4f8f92"/><rect x="19" y="14" width="6" height="1" fill="#4f8f92"/><rect x="19" y="14" width="6" height="1" fill="#34241d"/><rect x="19" y="14" width="6" height="1" fill="#34241d"/><rect x="19" y="14" width="1" height="1" fill="#34241d"/><rect x="24" y="14" width="1" height="1" fill="#34241d"/><rect x="16" y="15" width="12" height="20" fill="#dae2ea"/><rect x="12" y="20" width="4" height="15" fill="#da7b5b"/><rect x="18" y="19" width="3" height="4" fill="#a8ddf5"/><rect x="23" y="19" width="3" height="4" fill="#a8ddf5"/><rect x="20" y="27" width="4" height="8" fill="#64422a"/><rect x="16" y="25" width="12" height="1" fill="#dfceb5"/><rect x="12" y="17" width="3" height="2" fill="#ddb553"/><rect x="28" y="33" width="3" height="2" fill="#8f6039"/></svg>