<svg xmlns="http://www.w3.org/2000/svg" viewBox="0 0 48 48" width="288" height="288" shape-rendering="crispEdges"><rect width="48" height="48" fill="transparent"/><rect x="4" y="35" width="40" height="2" fill="#638f4c"/><rect x="3" y="37" width="42" height="1" fill="#34241d"/><rect x="8" y="12" width="20" height="1" fill="#42546c"/><rect x="9" y="13" width="18" height="1" fill="#42546c"/><rect x="10" y="14" width="16" height="1" fill="#42546c"/><rect x="11" y="15" width="14" height="1" fill="#42546c"/><rect x="12" y="16" width="12" height="1" fill="#42546c"/><rect x="12" y="16" width="12" height="1" fill="#34241d"/><rect x="12" y="16" width="12" height="1" fill="#34241d"/><rect x="12" y="16" width="1" height="1" fill="#34241d"/><rect x="23" y="16" width="1" height="1" fill="#34241d"/><rect x="10" y="17" width="18" height="15" fill="#f3e3c7"/><rect x="28" y="13" width="8" height="19" fill="#8c8782"/><rect x="28" y="8" width="8" height="1" fill="#42546c"/><rect x="29" y="9" width="6" height="1" fill="#42546c"/><rect x="30" y="10" width="4" height="1" fill="#42546c"/><rect x="31" y="11" width="2" height="1" fill="#42546c"/><rect x="32" y="12" width="0" height="1" fill="#42546c"/><rect x="32" y="12" width="0" height="1" fill="#34241d"/><rect x="32" y="12" width="0" height="1" fill="#34241d"/><rect x="32" y="12" width="1" height="1" fill="#34241d"/><rect x="31" y="12" width="1" height="1" fill="#34241d"/><rect x="30" y="17" width="5" height="1" fill="#ddb553"/><rect x="29" y="18" width="7" height="5" fill="#ddb553"/><rect x="30" y="23" width="5" height="1" fill="#ddb553"/><rect x="29" y="18" width="7" height="1" fill="#34241d"/><rect x="29" y="22" width="7" height="1" fill="#34241d"/><rect x="29" y="18" width="1" height="5" fill="#34241d"/><rect x="35" y="18" width="1" height="5" fill="#34241d"/><rect x="14" y="20" width="4" height="4" fill="#a8ddf5"/><rect x="21" y="20" width="4" height="4" fill="#a8ddf5"/><rect x="17" y="27" width="5" height="5" fill="#7b5b86"/><rect x="31" y="25" width="2" height="5" fill="#64422a"/><rect x="8" y="33" width="2" height="2" fill="#88b55d"/><rect x="9" y="35" width="1" height="2" fill="#8f6039"/><rect x="34" y="33" width="2" height="2" fill="#88b55d"/><rect x="35" y="35" width="1" height="2" fill="#8f6039"/></svg>