<svg xmlns="http://www.w3.org/2000/svg" viewBox="0 0 48 48" width="288" height="288" shape-rendering="crispEdges"><rect width="48" height="48" fill="transparent"/><rect x="4" y="35" width="40" height="2" fill="#638f4c"/><rect x="3" y="37" width="42" height="1" fill="#34241d"/><rect x="7" y="11" width="26" height="1" fill="#b55243"/><rect x="8" y="12" width="24" height="1" fill="#b55243"/><rect x="9" y="13" width="22" height="1" fill="#b55243"/><rect x="10" y="14" width="20" height="1" fill="#b55243"/><rect x="11" y="15" width="18" height="1" fill="#b55243"/><rect x="11" y="15" width="18" height="1" fill="#34241d"/><rect x="11" y="15" width="18" height="1" fill="#34241d"/><rect x="11" y="15" width="1" height="1" fill="#34241d"/><rect x="28" y="15" width="1" height="1" fill="#34241d"/><rect x="8" y="16" width="24" height="16" fill="#f3e3c7"/><rect x="8" y="25" width="24" height="4" fill="#cf6f73"/><rect x="10" y="19" width="4" height="4" fill="#a8ddf5"/><rect x="17" y="19" width="4" height="4" fill="#a8ddf5"/><rect x="24" y="19" width="4" height="4" fill="#a8ddf5"/><rect x="18" y="27" width="5" height="5" fill="#64422a"/><rect x="14" y="14" width="12" height="2" fill="#ddb553"/><rect x="4" y="30" width="4" height="2" fill="#8f6039"/><rect x="33" y="33" width="2" height="2" fill="#88b55d"/><rect x="34" y="35" width="1" height="2" fill="#8f6039"/></svg>