<svg xmlns="http://www.w3.org/2000/svg" viewBox="0 0 48 48" width="288" height="288" shape-rendering="crispEdges"><rect width="48" height="48" fill="transparent"/><rect x="4" y="35" width="40" height="2" fill="#638f4c"/><rect x="3" y="37" width="42" height="1" fill="#34241d"/><rect x="8" y="12" width="18" height="1" fill="#638f4c"/><rect x="9" y="13" width="16" height="1" fill="#638f4c"/><rect x="10" y="14" width="14" height="1" fill="#638f4c"/><rect x="11" y="15" width="12" height="1" fill="#638f4c"/><rect x="12" y="16" width="10" height="1" fill="#638f4c"/><rect x="12" y="16" width="10" height="1" fill="#34241d"/><rect x="12" y="16" width="10" height="1" fill="#34241d"/><rect x="12" y="16" width="1" height="1" fill="#34241d"/><rect x="21" y="16" width="1" height="1" fill="#34241d"/><rect x="10" y="17" width="14" height="15" fill="#f3e3c7"/><rect x="24" y="20" width="10" height="12" fill="#a8ddf5"/><rect x="24" y="20" width="10" height="1" fill="#34241d"/><rect x="24" y="31" width="10" height="1" fill="#34241d"/><rect x="24" y="20" width="1" height="12" fill="#34241d"/><rect x="33" y="20" width="1" height="12" fill="#34241d"/><rect x="29" y="21" width="1" height="10" fill="#34241d"/><rect x="25" y="26" width="8" height="1" fill="#34241d"/><rect x="14" y="21" width="4" height="4" fill="#a8ddf5"/><rect x="16" y="27" width="4" height="5" fill="#64422a"/><rect x="8" y="33" width="28" height="2" fill="#638f4c"/><rect x="25" y="33" width="2" height="2" fill="#88b55d"/><rect x="26" y="35" width="1" height="2" fill="#8f6039"/><rect x="30" y="33" width="2" height="2" fill="#88b55d"/><rect x="31" y="35" width="1" height="2" fill="#8f6039"/></svg>