<svg xmlns="http://www.w3.org/2000/svg" viewBox="0 0 48 48" width="288" height="288" shape-rendering="crispEdges"><rect width="48" height="48" fill="transparent"/><rect x="4" y="35" width="40" height="2" fill="#638f4c"/><rect x="3" y="37" width="42" height="1" fill="#34241d"/><rect x="7" y="13" width="22" height="1" fill="#42546c"/><rect x="8" y="14" width="20" height="1" fill="#42546c"/><rect x="9" y="15" width="18" height="1" fill="#42546c"/><rect x="10" y="16" width="16" height="1" fill="#42546c"/><rect x="11" y="17" width="14" height="1" fill="#42546c"/><rect x="11" y="17" width="14" height="1" fill="#34241d"/><rect x="11" y="17" width="14" height="1" fill="#34241d"/><rect x="11" y="17" width="1" height="1" fill="#34241d"/><rect x="24" y="17" width="1" height="1" fill="#34241d"/><rect x="9" y="18" width="18" height="14" fill="#dae2ea"/><rect x="13" y="21" width="4" height="4" fill="#a8ddf5"/><rect x="20" y="21" width="4" height="4" fill="#a8ddf5"/><rect x="16" y="27" width="4" height="5" fill="#4f8f92"/><rect x="31" y="12" width="3" height="1" fill="#5ea8c8"/><rect x="31" y="13" width="3" height="1" fill="#5ea8c8"/><rect x="30" y="14" width="5" height="1" fill="#5ea8c8"/><rect x="30" y="15" width="5" height="1" fill="#5ea8c8"/><rect x="29" y="16" width="7" height="1" fill="#5ea8c8"/><rect x="29" y="17" width="7" height="1" fill="#5ea8c8"/><rect x="28" y="18" width="9" height="1" fill="#5ea8c8"/><rect x="28" y="19" width="9" height="1" fill="#5ea8c8"/><rect x="30" y="19" width="5" height="1" fill="#34241d"/><rect x="30" y="19" width="5" height="1" fill="#34241d"/><rect x="30" y="19" width="1" height="1" fill="#34241d"/><rect x="34" y="19" width="1" height="1" fill="#34241d"/><rect x="31" y="18" width="3" height="2" fill="#34241d"/><rect x="7" y="33" width="30" height="2" fill="#638f4c"/><rect x="8" y="33" width="2" height="2" fill="#88b55d"/><rect x="9" y="35" width="1" height="2" fill="#8f6039"/><rect x="33" y="33" width="2" height="2" fill="#88b55d"/><rect x="34" y="35" width="1" height="2" fill="#8f6039"/></svg>