<svg xmlns="http://www.w3.org/2000/svg" viewBox="0 0 48 48" width="288" height="288" shape-rendering="crispEdges"><rect width="48" height="48" fill="transparent"/><rect x="4" y="35" width="40" height="2" fill="#638f4c"/><rect x="3" y="37" width="42" height="1" fill="#34241d"/><rect x="8" y="10" width="24" height="1" fill="#64422a"/><rect x="8" y="11" width="24" height="1" fill="#64422a"/><rect x="9" y="12" width="22" height="1" fill="#64422a"/><rect x="9" y="13" width="22" height="1" fill="#64422a"/><rect x="10" y="14" width="20" height="1" fill="#64422a"/><rect x="10" y="15" width="20" height="1" fill="#64422a"/><rect x="11" y="16" width="18" height="1" fill="#64422a"/><rect x="8" y="16" width="24" height="1" fill="#da7b5b"/><rect x="11" y="17" width="18" height="15" fill="#c99a68"/><rect x="15" y="21" width="4" height="4" fill="#a8ddf5"/><rect x="21" y="21" width="4" height="4" fill="#a8ddf5"/><rect x="18" y="27" width="4" height="5" fill="#b55243"/><rect x="6" y="22" width="2" height="10" fill="#da7b5b"/><rect x="32" y="22" width="2" height="10" fill="#da7b5b"/><rect x="5" y="22" width="4" height="2" fill="#da7b5b"/><rect x="31" y="22" width="4" height="2" fill="#da7b5b"/><rect x="8" y="33" width="2" height="2" fill="#88b55d"/><rect x="9" y="35" width="1" height="2" fill="#8f6039"/><rect x="31" y="33" width="2" height="2" fill="#88b55d"/><rect x="32" y="35" width="1" height="2" fill="#8f6039"/></svg>