<svg xmlns="http://www.w3.org/2000/svg" viewBox="0 0 48 48" width="288" height="288" shape-rendering="crispEdges"><rect width="48" height="48" fill="transparent"/><rect x="4" y="35" width="40" height="2" fill="#638f4c"/><rect x="3" y="37" width="42" height="1" fill="#34241d"/><rect x="7" y="13" width="18" height="1" fill="#b97b53"/><rect x="8" y="14" width="16" height="1" fill="#b97b53"/><rect x="9" y="15" width="14" height="1" fill="#b97b53"/><rect x="10" y="16" width="12" height="1" fill="#b97b53"/><rect x="11" y="17" width="10" height="1" fill="#b97b53"/><rect x="11" y="17" width="10" height="1" fill="#34241d"/><rect x="11" y="17" width="10" height="1" fill="#34241d"/><rect x="11" y="17" width="1" height="1" fill="#34241d"/><rect x="20" y="17" width="1" height="1" fill="#34241d"/><rect x="9" y="18" width="14" height="14" fill="#f3e3c7"/><rect x="13" y="21" width="3" height="3" fill="#a8ddf5"/><rect x="18" y="21" width="3" height="3" fill="#a8ddf5"/><rect x="14" y="27" width="4" height="5" fill="#8f6039"/><rect x="28" y="17" width="4" height="15" fill="#8c8782"/><rect x="29" y="20" width="2" height="2" fill="#34241d"/><rect x="24" y="21" width="5" height="1" fill="#dae2ea"/><rect x="31" y="21" width="5" height="1" fill="#dae2ea"/><rect x="30" y="15" width="1" height="5" fill="#dae2ea"/><rect x="30" y="22" width="1" height="5" fill="#dae2ea"/><rect x="5" y="33" width="2" height="2" fill="#88b55d"/><rect x="6" y="35" width="1" height="2" fill="#8f6039"/><rect x="24" y="33" width="2" height="2" fill="#88b55d"/><rect x="25" y="35" width="1" height="2" fill="#8f6039"/></svg>